<?xml version="1.0" encoding="UTF-8" standalone="no"?>
<!DOCTYPE svg PUBLIC "-//W3C//DTD SVG 1.1//EN" "http://www.w3.org/Graphics/SVG/1.1/DTD/svg11.dtd">
<svg version="1.1" xmlns="http://www.w3.org/2000/svg" xmlns:xlink="http://www.w3.org/1999/xlink" preserveAspectRatio="xMidYMid meet" viewBox="0 0 640 640" width="640" height="640"><defs><path d="M381.01 115.23C454.96 115.23 514.93 175.43 514.93 268.5C514.93 272 514.85 275.51 514.66 278.95C568.08 293.1 607.36 340.51 607.36 396.81C607.36 396.81 607.36 396.81 607.36 396.81C607.36 464.28 550.97 518.98 481.4 518.98C449.8 518.98 197.03 518.98 165.44 518.98C95.88 518.98 39.47 464.28 39.47 396.81C39.47 396.81 39.47 396.81 39.47 396.81C39.47 337.98 65.58 295.58 126.57 271.77C131.68 207.99 187.32 178.95 239.34 178.95C250.78 178.95 261.75 181.36 271.99 185.77C296.31 143.07 336.07 115.23 381.01 115.23Z" id="d59JDrgURB"></path><path d="M272.96 251.86L315.48 291.22L298.76 264.36L430.26 272.95L501.12 331.47L508.64 456.75L494.01 495.27L441.61 495.27L450.5 477.12L472.53 480.64L431.24 423.6L435.31 390.46L417.9 419.35L367.16 417.49L353.27 380.83L359.75 450.27L345.13 491.75L339.38 496.38L293.83 496.38L304.38 480.09L315.31 483.79L272.96 370.27L229.44 340.71L153.87 327.29L143.35 320.85L143.85 306.72L139.15 317.22L135.71 310.82L135.49 309.04L164.03 285.93L166.83 272.95L193.67 256.81L200.34 267.16L198.24 237.51L211.59 255.69L272.96 251.86ZM184.45 278.17L182.95 278.82L181.48 279.54L180.06 280.33L178.67 281.19L177.33 282.12L176.03 283.12L174.79 284.18L173.59 285.3L189.64 283.2L190.84 282.89L191.88 282.34L192.73 281.58L193.38 280.66L193.81 279.63L194.01 278.52L193.95 277.38L193.61 276.25L192.99 275.18L185.99 277.6L184.45 278.17Z" id="j26K88dlHX"></path><path d="M264.75 376.31L296.85 466.61L281.12 493.55L231.09 493.28L242.4 479.84L253.6 484.75L258.24 470.83L246.24 423.89L245.17 365.62L264.75 376.31Z" id="d1A8aOk9On"></path><path d="M416.4 432.73L428.66 448.68L398.24 493.43L358.5 492.7L366.77 477.48L379.62 481.03L372.83 429.77L416.4 432.73Z" id="c6taGljwpt"></path></defs><g><g><g><use xlink:href="#d59JDrgURB" opacity="1" fill="#313131" fill-opacity="1"></use></g><g><g><use xlink:href="#j26K88dlHX" opacity="1" fill="#e24300" fill-opacity="1"></use></g><g><use xlink:href="#d1A8aOk9On" opacity="1" fill="#e24300" fill-opacity="1"></use></g><g><use xlink:href="#c6taGljwpt" opacity="1" fill="#e24300" fill-opacity="1"></use></g></g></g></g></svg>